<?xml version="1.0" encoding="utf-8"?>
<!-- Generator: Adobe Illustrator 17.1.0, SVG Export Plug-In . SVG Version: 6.00 Build 0)  -->
<!DOCTYPE svg PUBLIC "-//W3C//DTD SVG 1.1//EN" "http://www.w3.org/Graphics/SVG/1.1/DTD/svg11.dtd">
<svg version="1.1" id="waves" xmlns="http://www.w3.org/2000/svg" xmlns:xlink="http://www.w3.org/1999/xlink" x="0px" y="0px"
	 viewBox="0 0 987 702" enable-background="new 0 0 987 702" xml:space="preserve">
<path id="right-up" fill="#FFCB09" d="M987,3.1v361c-35.3-63.4-70.3-174.2-153.7-185.9C727.7,163.3,660.9,119.1,643.2,0L987,3.1z"/>
<path id="left-down" fill="#FFCB09" d="M441.8,702H0V251.4c47.4,26.8-39.8,243.5,219.2,234.3C341,481.4,418.3,550.4,441.8,702z"/>
<path id="blue" fill="#4976BB" d="M987,364.1V702H441.8C418.3,550.4,341,481.4,219.2,485.8C-39.8,494.9,47.4,278.2,0,251.4V0h643.2
	c17.7,119.1,84.5,163.3,190.1,178.2C916.7,189.9,951.7,300.7,987,364.1z"/>
</svg>
